<svg xmlns="http://www.w3.org/2000/svg" version="1.1" xmlns:xlink="http://www.w3.org/1999/xlink" xmlns:svgjs="http://svgjs.dev/svgjs" width="1000" height="1125" viewBox="0 0 1000 1125"><g transform="matrix(1,0,0,1,0.00007343750002064553,0)"><svg viewBox="0 0 320 360" data-background-color="#ffffff" preserveAspectRatio="xMidYMid meet" height="1125" width="1000" xmlns="http://www.w3.org/2000/svg" xmlns:xlink="http://www.w3.org/1999/xlink"><g id="tight-bounds" transform="matrix(1,0,0,1,0.000023499999997511622,0)"><svg viewBox="0 0 320 360" height="360" width="320"><g><svg></svg></g><g><svg viewBox="0 0 320 360" height="360" width="320"><g><path transform="translate(-74.99272,-51.79039) scale(4.65793,4.65793)" d="M20.6 59.9l0.8 1-0.4-1.3c-0.1-0.6-0.8 0.1-0.4 0.3M21.5 59.3c0.3 0.5 0.6 1 0.6 1.5 0 0.7 0.6 1 1.1 1.2-0.7-0.8-1.1-3-1.7-2.7M59.9 16.9c1.7 0 3.3-0.2 5.1 0.2 4.4 1.1 8.1 3.3 10.6 6.4l7 11.2c0.3 2.8 0.9 5.9 0.8 9.3 0.7 0 0.6-1 1.4-1.2-0.8 2-1.2 4.5-1.4 7.4-0.5-1.6 0-4 0.1-5.3-0.7 1.1-1.1 0.3-1.1-0.2 0.1-0.8-0.3-0.7-0.6-1-1.1-1-1.8-2.1-2.6-3.8 0.5-1.3 0.6-3.2-1-4.2-0.5-0.3-1.1-0.8-1.4-1.6-0.4-1.1-1.1-2.4-0.9-4.1 0.1-0.5-1.5 1.1-2.4 0.4-3.9-2.7-7.8-5.8-12.5-8.4-2.5 0-4.3-0.9-5.2-2-0.8-1-0.2-2.3 1-2.4 0.7 0 1.5-0.2 2.1 0.2 0.1-0.4 0.5-0.9 1-0.9M50 14.6l0.2 0.1c1 0.2 1.5 1.6 2.6 1.1 0 0.7 0.1 1.4-0.1 1.9-0.3 0.8-1.2 0.8-1.9 0.8-6.7-0.4-10.6 2.4-14.7 4.8-1.1 0.7-2.3 1.2-3.2 2.1-4.3 4-9 7.7-10.1 15.1l-0.9 8.2c-0.1 0.9-1.1 1.8-0.9 2.9l0.7 4.9c-0.7-0.7-1.1 0.2-0.9 0.6 0.1 0.3 0.5 1.3 1.1 0.4 0.8 1.5 1.6 4.4 2.7 5.7 3.4 4 7.8 7.6 11.4 11.2 0.9-0.2 1.6-0.2 1.8-0.8 0.3 0.6-0.3 1.2-0.8 1.3 1.6 1 3.4 1.9 5.8 2.1 3.1 0.2 6 0.7 8.7 1.4 1.4-0.4 2.8-0.6 4.3-0.7 0.5 0 0.8-0.8 1.4-1l0.1-1c0.6 0.9 0.5-0.3 0.1-0.9 0.7 0.6 0.9 1.1 1.2 1.5 0-0.3 0.8-1.4 0.8-0.1l0.2-1.3c0.3-0.2 0.4 1.1 0.7 0.2 0.3-0.9 0.9-0.2 1.5-0.5-0.2 0.4-0.1 1.2 0.6 0.7l0.8-0.7c0.5 1.2 1.3 0.7 1.7 0.5 4.4-2.8 8.8-6.1 13-9.4l-0.1 1.3 0.5-1.6c0.5 0.5 0.9 0.1 1.1-0.2 0.6-1 1.4-2 2.7-2.9-1.6 4.3-3.5 7.7-5.9 10.5l-1 1.2c0 0.7-0.2 1.6-1 1.7-0.4 0.1-1.2-0.2-1.8 0.4-0.3 0.4 0.7 1.2-0.1 0.6-0.7-0.5-1.4 0-2.2 0.2-0.6 0.2 0.4 0.8 0.6 1.2 0.2 0.4 0.4 0.8 0.3 1.3l-1.1-1.2c-1.3 0.7-2.1 2-3.2 3-0.5 0.4-0.3 1.1-0.3 1.7-0.7 0-1.5-0.2-1.9 0.2-0.3 0.4-0.2 1-0.2 1.6-1-0.1-1.1-1.6-2-1.3-0.9 0.2-1.9 0.3-2.7 0.8 0.6 1.2-1 0.5-0.8 0.7-1.5-0.9-2.8-1.6-4.4-1-3.4-1.1-7.6-0.6-10.7-0.2 0-0.5 0.1-1-0.1-1.1-0.2 0.5-0.8 0.3-0.7 0.3-1.9-1.3-3.8-2.1-5.8-3.2-1.8 0.2-3.5-0.7-4-1.2-1.4-1.3-3-0.6-4.3-0.9-2.8-0.7-3.8-3.6-4.1-5.6-0.2-1-1-1.4-1.3-1.3-1.3-4.2-3.3-8-4.9-11.9-0.4-1-0.3-2-0.3-3.1 0.5 0.2 1 0.1 0.9-0.6-0.5-3.3-1.7-5.8-3-8.2 0.7-3.4 0.8-7.4 2.4-10.4 1.4-2.7 4-4.1 5.8-6.4 0.6-0.8 0.6-1.9 1.2-2.6 2-2 4-4.1 6.2-5.9 1-0.8 2.2 0 3.7-0.3 0.5-1.8 2.5-3.4 4.4-2.9 0.8 0.2 2.4-1.9 2.9-2.1 0.8-0.3 0.4 0.8 0.4 1.5 1.9-1.5 4.5-2.3 6.9-3.2" fill="#ba3b0a" fill-rule="nonzero" stroke="none" stroke-width="1" stroke-linecap="butt" stroke-linejoin="miter" stroke-miterlimit="10" stroke-dasharray="" stroke-dashoffset="0" font-family="none" font-weight="none" font-size="none" text-anchor="none" style="mix-blend-mode: normal" data-fill-palette-color="tertiary"></path></g><g transform="matrix(1,0,0,1,64,103.92220784124734)"><svg viewBox="0 0 192 152.15558431750532" height="152.15558431750532" width="192"><g><svg viewBox="0 0 192 152.15558431750532" height="152.15558431750532" width="192"><g><svg viewBox="0 0 192 152.15558431750532" height="152.15558431750532" width="192"><g transform="matrix(1,0,0,1,0,91.96564810205528)"><svg viewBox="0 0 192 60.18993621545003" height="60.18993621545003" width="192"><g id="textblocktransform"><svg viewBox="0 0 192 60.18993621545003" height="60.18993621545003" width="192" id="textblock"><g><svg viewBox="0 0 192 60.18993621545003" height="60.18993621545003" width="192"><g transform="matrix(1,0,0,1,0,0)"><svg width="192" viewBox="0.22 -32.4 103.34 32.4" height="60.18993621545003" data-palette-color="#ba3b0a"><g class="wordmark-text-0" data-fill-palette-color="primary" id="text-0"><path d="M25.49 0L24.12-3.54 13.53-3.54 15.77-9.96 21.63-9.96 12.96-32.4 23.49-32.4 36.4 0 25.49 0ZM16.58-18.07L10.64 0 0.22 0 11.79-30.93 16.58-18.07ZM63.84 0L59.49 0 59.49-12.13 45.48-12.13 38.99-18.63 38.99-25.93 45.48-32.4 49.14-32.4 49.14-20.9 64.04-20.9 70.31-14.4 70.31-6.47 63.84 0ZM59.49-26.56L50.85-26.56 50.85-32.4 63.82-32.4 69.43-26.76 69.43-23.32 59.49-23.32 59.49-26.56ZM38.99-6.47L38.99-9.72 49.78-9.72 49.78-5.86 57.79-5.86 57.79 0 44.43 0 38.99-6.47ZM77.88-25.34L77.88-32.4 103.56-32.4 103.56-6.47 97.09 0 92.77 0 92.77-25.34 77.88-25.34ZM85.15-13.57L85.15-6.47 91.06-6.47 91.06 0 80.44 0 73.95-6.47 73.95-13.57 85.15-13.57Z" fill="#ba3b0a" data-fill-palette-color="primary"></path></g></svg></g></svg></g></svg></g></svg></g><g transform="matrix(1,0,0,1,67.26486604280714,0)"><svg viewBox="0 0 57.47026791438571 83.18249184975195" height="83.18249184975195" width="57.47026791438571"><g><svg xmlns="http://www.w3.org/2000/svg" data-name="Layer 1" viewBox="18.319962741419626 4.161601338733494 63.34003725858037 91.67839866126651" x="0" y="0" height="83.18249184975195" width="57.47026791438571" class="icon-icon-0" data-fill-palette-color="accent" id="icon-0"><path d="M76.61 65.1l1.19-7.78a1.64 1.64 0 0 0 0-0.23 4.28 4.28 0 0 0-4.28-4.27H63.07A5.74 5.74 0 0 1 59.44 46 17.84 17.84 0 0 0 67.73 33.9c1.39-2.62 6.66-13.66 0.61-20.57-0.46-0.53-7.56-8.78-17.44-9.16C45.19 4 39.77 6.41 34.8 11.47a13 13 0 0 0-5.45 7.72c-0.79 3.6 0.19 7.47 2.87 11.51a17.87 17.87 0 0 0 8.55 15.21 5.77 5.77 0 0 1-3.62 6.91H26.33a4.28 4.28 0 0 0-4.27 4.27 0.86 0.86 0 0 0 0 0.23l1.21 8a26.51 26.51 0 0 0-4.95 15.47V91.34a4.51 4.51 0 0 0 4.5 4.5H77.16a4.51 4.51 0 0 0 4.5-4.5V80.76C81.66 74.48 80 69.48 76.61 65.1ZM32.28 19.87a10.06 10.06 0 0 1 4.23-5.93 1.54 1.54 0 0 0 0.32-0.25C41.21 9.19 45.9 7 50.76 7.17c8.66 0.32 15.22 8 15.29 8.1l0 0c4.29 4.88 0.93 13.23-0.54 16.3a4.58 4.58 0 0 1-0.33-0.46 1.62 1.62 0 0 0-0.1-0.18l-0.23-0.42c0-0.08-0.08-0.18-0.12-0.27a4 4 0 0 1-0.2-0.46 3.24 3.24 0 0 1-0.13-0.33L64.24 29c0-0.13-0.07-0.26-0.11-0.39A5.44 5.44 0 0 1 64 28c0-0.14-0.07-0.28-0.1-0.42l-0.12-0.75-0.06-0.41c-0.05-0.4-0.09-0.82-0.11-1.27a5.7 5.7 0 0 0-2.12-4.2 5.89 5.89 0 0 0-0.71-0.48l-0.15-0.08a5.7 5.7 0 0 0-0.76-0.34l-0.12 0a6.93 6.93 0 0 0-0.75-0.2l-0.12 0a4.54 4.54 0 0 0-0.82-0.07h-0.18a6 6 0 0 0-0.84 0.07c-7.09 1.21-18.69 0.51-18.8 0.5a1.5 1.5 0 0 0-1.59 1.63A15.18 15.18 0 0 1 35.39 30L35 29.43C32.56 26 31.65 22.74 32.28 19.87Zm3.33 14.21h0a1.73 1.73 0 0 0 0.46-0.12l0.06 0a1.73 1.73 0 0 0 0.41-0.3c0.14-0.15 3.22-3.46 3.12-10.3 3.56 0.16 12 0.37 17.82-0.62a2.53 2.53 0 0 1 2.06 0.54 2.77 2.77 0 0 1 1 2c0 0.27 0 0.54 0 0.81l0 0.25 0.06 0.56c0 0.1 0 0.2 0 0.29s0.05 0.36 0.08 0.54a2.74 2.74 0 0 1 0.05 0.28l0.12 0.57a1.74 1.74 0 0 1 0.05 0.22c0.07 0.27 0.13 0.53 0.21 0.78v0.05c0.07 0.24 0.15 0.47 0.23 0.7 0 0.07 0.05 0.14 0.08 0.22s0.12 0.34 0.19 0.5l0.1 0.24 0.21 0.46c0 0.07 0.07 0.14 0.1 0.22l0.26 0.47 0.09 0.15c0.12 0.2 0.24 0.39 0.37 0.58l0.06 0.07c0.11 0.15 0.23 0.3 0.34 0.43l0.14 0.15q0.15 0.16 0.3 0.3l0.16 0.14a2.34 2.34 0 0 0 0.31 0.24l0.17 0.12 0.08 0.06a14.85 14.85 0 0 1-6.87 8.93 1.26 1.26 0 0 0-0.45 0.26 14.93 14.93 0 0 1-21.57-9.75Zm8.32 13.38a17.76 17.76 0 0 0 12.36 0 8.58 8.58 0 0 0 1.83 5.32h-16A8.58 8.58 0 0 0 43.93 47.46Zm-17.6 8.36H73.54A1.28 1.28 0 0 1 74.81 57L70.44 85.71a0.82 0.82 0 0 0 0 0.22 1.27 1.27 0 0 1-1.27 1.28H30.73a1.27 1.27 0 0 1-1.27-1.28 1.64 1.64 0 0 0 0-0.22L25.06 57A1.28 1.28 0 0 1 26.33 55.82Zm-5 35.52V80.76A23.53 23.53 0 0 1 24 69.86l2.47 16.2a4 4 0 0 0 0.21 1.15h-0.79A2.78 2.78 0 0 0 23.1 90v2.85h-0.26A1.5 1.5 0 0 1 21.34 91.34Zm4.76 1.5V90.21H73v2.63Zm52.56-1.5a1.5 1.5 0 0 1-1.5 1.5H76V90a2.78 2.78 0 0 0-2.76-2.78 4 4 0 0 0 0.22-1.15L76 69.44a22 22 0 0 1 2.71 11.32Z" fill="#fa6101" data-fill-palette-color="accent"></path><circle cx="45.03" cy="28.31" r="2.4" fill="#fa6101" data-fill-palette-color="accent"></circle><circle cx="55.59" cy="28.31" r="2.4" fill="#fa6101" data-fill-palette-color="accent"></circle><path d="M55.63 37.37a1.5 1.5 0 0 0-3 0 2.69 2.69 0 0 1-5.38 0 1.5 1.5 0 0 0-3 0 5.69 5.69 0 0 0 11.38 0Z" fill="#fa6101" data-fill-palette-color="accent"></path><path d="M42.92 80.31a1.53 1.53 0 0 0 1.06 0.44A1.5 1.5 0 0 0 45 78.19L38.3 71.45 45 64.79a1.5 1.5 0 1 0-2.12-2.12l-7.72 7.72a1.51 1.51 0 0 0 0 2.12Z" fill="#fa6101" data-fill-palette-color="accent"></path><path d="M55.31 64.79L62 71.45l-6.74 6.74a1.5 1.5 0 0 0 1.06 2.56 1.49 1.49 0 0 0 1.06-0.44l7.8-7.8a1.52 1.52 0 0 0 0.44-1.06 1.5 1.5 0 0 0-0.44-1.06l-7.71-7.72a1.5 1.5 0 0 0-2.12 2.12Z" fill="#fa6101" data-fill-palette-color="accent"></path><path d="M46.37 82.64a1.61 1.61 0 0 0 0.48 0.08 1.5 1.5 0 0 0 1.42-1l6.56-19.41a1.5 1.5 0 1 0-2.84-1L45.43 80.74A1.51 1.51 0 0 0 46.37 82.64Z" fill="#fa6101" data-fill-palette-color="accent"></path></svg></g></svg></g><g></g></svg></g></svg></g></svg></g></svg></g><defs></defs></svg><rect width="320" height="360" fill="none" stroke="none" visibility="hidden"></rect></g></svg></g></svg>